<?xml version="1.0" encoding="utf-8"?>
<svg viewBox="0 0 500 500" xmlns="http://www.w3.org/2000/svg">
  <rect width="500" height="500" style="stroke-width: 0px; stroke: rgb(185, 185, 185);" rx="154.411" ry="154.411" x="-0.735" y="-0.735"/>
  <path d="M 445.459 329.887 C 452.651 337.079 452.651 348.741 445.459 355.932 L 384.071 417.308 C 372.553 428.826 352.632 420.753 352.632 404.285 L 352.632 373.604 L 307.523 373.604 C 304.971 373.604 302.533 372.544 300.791 370.679 L 246.65 312.671 L 287.575 268.821 L 328.077 312.216 L 352.632 312.216 L 352.632 281.537 C 352.632 265.086 372.54 256.983 384.071 268.514 L 445.459 329.887 Z M 67.178 189.44 L 131.635 189.44 L 172.137 232.835 L 213.062 188.986 L 158.921 130.978 C 157.179 129.112 154.741 128.052 152.189 128.052 L 67.178 128.052 C 62.093 128.052 57.97 132.175 57.97 137.261 L 57.97 180.233 C 57.97 185.317 62.093 189.44 67.178 189.44 Z M 352.632 189.44 L 352.632 220.122 C 352.632 236.589 372.553 244.662 384.071 233.145 L 445.459 171.769 C 452.651 164.577 452.651 152.916 445.459 145.725 L 384.071 84.351 C 372.54 72.819 352.632 80.923 352.632 97.373 L 352.632 128.052 L 307.523 128.052 C 304.971 128.052 302.533 129.112 300.791 130.978 L 131.635 312.216 L 67.178 312.216 C 62.093 312.216 57.97 316.339 57.97 321.425 L 57.97 364.395 C 57.97 369.481 62.093 373.604 67.178 373.604 L 152.189 373.604 C 154.741 373.604 157.179 372.544 158.921 370.679 L 328.077 189.44 L 352.632 189.44 Z" style="fill: rgb(255, 255, 255);"/>
</svg>